<?xml version="1.0" encoding="UTF-8"?>
<svg version="1.1" xmlns="http://www.w3.org/2000/svg" width="518" height="518">
<path d="M0 0 C6.59465555 6.15024253 10.45804051 12.87561515 11.125 21.875 C11.1294881 23.91708686 11.10537784 25.96062892 11 28 C11.52843506 27.71278076 12.05687012 27.42556152 12.60131836 27.12963867 C15.04275799 25.80813525 17.49002986 24.49779861 19.9375 23.1875 C20.76830078 22.73568359 21.59910156 22.28386719 22.45507812 21.81835938 C29.58782394 18.01607853 36.88554521 14.82800559 45 14 C45.71542969 13.92394531 46.43085938 13.84789063 47.16796875 13.76953125 C54.55433243 13.33503927 60.73024098 15.06490125 67 19 C77.20410697 28.26499273 81.01059068 38.6168597 81.9375 52.125 C83.15749568 80.02205062 71.48449259 107.78495393 60.05761719 132.69238281 C59.35828941 134.21824758 58.66354397 135.7462217 57.97363281 137.27636719 C49.39628427 156.28012232 38.86567802 174.22745689 28 192 C28.47961182 191.63793457 28.95922363 191.27586914 29.45336914 190.90283203 C36.78047095 185.38735194 44.21652492 180.02869365 51.66699219 174.68164062 C53.80966964 173.13719083 55.94121386 171.57870773 58.0703125 170.015625 C115.99503237 127.84847685 115.99503237 127.84847685 143.1875 131.375 C150.16699587 133.18239388 155.58129186 137.57719514 159.703125 143.41015625 C165.61136209 154.66636656 165.06562884 167.80220725 161.48046875 179.68359375 C144.39498013 231.32481374 106.52862252 277.89588049 73.87646484 320.54589844 C69.20111054 326.66047839 64.5645287 332.80217736 60 339 C59.26620117 339.99580078 59.26620117 339.99580078 58.51757812 341.01171875 C42.45722442 362.94068024 23.99439022 388.95819567 23 417 C34.26835662 415.45291005 40.45432971 410.75510972 48.68359375 403.12890625 C50.47679265 401.48085667 52.27626624 399.94100389 54.1875 398.4375 C56.46953209 396.45973886 58.25512771 394.60035588 60.1875 392.3125 C70.57029553 380.21448495 82.19198773 371.30548842 98 368 C100.33254032 367.93917147 102.66791351 367.9237305 105 368 C105.83940617 372.24882398 106.67047347 376.49923705 107.5 380.75 C107.85771484 382.55984375 107.85771484 382.55984375 108.22265625 384.40625 C108.44824219 385.56640625 108.67382812 386.7265625 108.90625 387.921875 C109.22045898 389.52434082 109.22045898 389.52434082 109.54101562 391.15917969 C110 394 110 394 110 398 C109.23816406 398.14695312 108.47632813 398.29390625 107.69140625 398.4453125 C94.75152598 401.25622282 85.22672987 408.68649311 76.75 418.75 C65.79991386 431.63095979 51.00755396 445.57404861 33.4921875 447.23828125 C24.09401414 447.50479661 16.4718744 445.38386747 9.125 439.375 C4.7567735 435.18650375 2.18644342 430.60221246 0 425 C-0.36480469 424.113125 -0.72960937 423.22625 -1.10546875 422.3125 C-7.62485698 398.17083529 4.38189427 372.03638706 16.125 351.5625 C26.52290653 333.94802585 38.6590792 317.54295887 51.16015625 301.38525391 C60.3674109 289.44856628 69.22729856 277.25793284 78 265 C78.48936035 264.3188916 78.9787207 263.6377832 79.48291016 262.93603516 C91.58662003 246.07276154 103.48410242 228.90600671 114 211 C114.67192383 209.86280518 114.67192383 209.86280518 115.35742188 208.70263672 C124.20900176 193.67279219 132.43918243 178.58457913 138 162 C100.6860669 175.94403763 68.83995697 199.98565711 37.671875 224.35546875 C24.55989984 234.5981496 11.36232452 244.60061453 -2.41992188 253.92480469 C-7.85443858 257.62282872 -12.64239347 261.48203023 -17.2109375 266.20703125 C-19.73321057 268.73481146 -22.4341479 271.03303195 -25.14453125 273.35546875 C-26.7947618 274.81809414 -28.3052891 276.3307136 -29.8125 277.9375 C-32 280 -32 280 -35 280 C-37.06742558 282.07637399 -37.06742558 282.07637399 -39.125 284.8125 C-39.92679687 285.82441406 -40.72859375 286.83632813 -41.5546875 287.87890625 C-42.76511719 289.42384766 -42.76511719 289.42384766 -44 291 C-50.06074761 298.53708356 -56.32218618 305.87889859 -62.671875 313.171875 C-65.81941579 316.78734287 -68.9453653 320.42080557 -72.0625 324.0625 C-72.55339111 324.63589111 -73.04428223 325.20928223 -73.55004883 325.80004883 C-74.53885203 326.95530518 -75.52754049 328.11065976 -76.51611328 329.26611328 C-79.00895524 332.17894046 -81.50462766 335.08934061 -84 338 C-85.0000134 339.16665518 -86.00001341 340.33332184 -87 341.5 C-93 348.5 -93 348.5 -94.50073242 350.25073242 C-95.49845195 351.41481977 -96.49601114 352.57904456 -97.4934082 353.7434082 C-100.02698743 356.70069887 -102.56350137 359.65538369 -105.10546875 362.60546875 C-105.61609863 363.19924316 -106.12672852 363.79301758 -106.65283203 364.40478516 C-107.6685784 365.58470561 -108.68645402 366.76279671 -109.70654297 367.93896484 C-112.03190363 370.63442566 -114.25611732 373.33940751 -116.40234375 376.18359375 C-122.11183363 383.73938616 -126.93273179 386.94989589 -136.25 388.5625 C-140.31075363 387.7318913 -142.07151654 385.92848346 -145 383 C-147.13998873 376.58003382 -148.17846759 367.38638923 -145.06103516 361.109375 C-142.5879202 357.52824808 -139.5580981 354.4948512 -136.453125 351.46142578 C-134.30787558 349.30392191 -132.44983747 346.94595743 -130.5625 344.5625 C-126.60427044 339.69791376 -122.53350939 334.93937822 -118.43945312 330.18945312 C-115.42768013 326.68783649 -112.46948309 323.15222407 -109.5625 319.5625 C-105.42571255 314.46471656 -101.13382136 309.51422407 -96.81469727 304.57128906 C-92.74553389 299.9013056 -88.82967841 295.13890751 -85 290.26953125 C-83 288 -83 288 -80.5078125 286.0078125 C-77.86918079 283.89526312 -75.96935366 281.71030454 -73.875 279.0625 C-70.52234038 274.87722624 -67.11163139 270.76151606 -63.625 266.6875 C-58.4176846 260.56806656 -53.43734205 254.29037667 -48.51269531 247.94238281 C-46.88960165 245.85824253 -45.25416104 243.78419084 -43.6171875 241.7109375 C-36.26095098 232.36732653 -29.23750769 222.85649473 -22.45898438 213.08691406 C-21.01539058 211.0220145 -19.55098264 208.97379367 -18.078125 206.9296875 C-4.94457834 188.66166257 6.7791455 169.49037171 18 150 C18.4753418 149.17854492 18.95068359 148.35708984 19.44042969 147.51074219 C37.72773286 115.73511323 53.15851344 81.82716132 56 45 C37.50689161 47.91862449 22.07515844 58.09563714 8 70 C6.16730018 71.47995152 4.33394397 72.9590905 2.5 74.4375 C-3.84056404 79.63818736 -9.91786575 85.1050399 -15.89453125 90.71875 C-16.85746094 91.6159375 -17.82039063 92.513125 -18.8125 93.4375 C-19.68519531 94.26121094 -20.55789063 95.08492188 -21.45703125 95.93359375 C-24 98 -24 98 -26.48828125 98.93359375 C-29.93438647 100.39671463 -31.9714969 102.85774183 -34.375 105.625 C-34.85904297 106.16769531 -35.34308594 106.71039063 -35.84179688 107.26953125 C-37.23732157 108.83833205 -38.62071455 110.41692066 -40 112 C-40.62132812 112.70898438 -41.24265625 113.41796875 -41.8828125 114.1484375 C-42.96835406 115.39130392 -44.05166076 116.63612556 -45.1328125 117.8828125 C-47.98136342 121.11275936 -50.90285102 124.2754224 -53.8190918 127.4440918 C-56.67323831 130.5468895 -59.50344907 133.6686646 -62.3125 136.8125 C-66.71167736 141.71533988 -71.20689635 146.52499635 -75.70849609 151.33349609 C-79.30830897 155.1807055 -82.8851964 159.04637758 -86.4375 162.9375 C-92.58452381 169.66052604 -98.82209688 176.29743642 -105.06054688 182.93554688 C-107.58761339 185.62548575 -110.11185173 188.3180677 -112.63574219 191.01098633 C-113.8757387 192.33396322 -115.11597202 193.6567182 -116.35644531 194.97924805 C-119.58502908 198.42157523 -122.81046294 201.86678196 -126.03125 205.31640625 C-126.69576172 206.02732422 -127.36027344 206.73824219 -128.04492188 207.47070312 C-129.30241832 208.81613639 -130.55900418 210.1624216 -131.81445312 211.50976562 C-134.73719086 214.63497234 -137.69387464 217.71155271 -140.73046875 220.7265625 C-143.03156491 223.01194167 -145.22877385 225.32438495 -147.3125 227.8125 C-150.07618029 231.02333755 -152.98619596 234.02267165 -156 237 C-158.91053801 239.87557659 -161.72424022 242.75874094 -164.375 245.875 C-167.41430745 249.43286227 -170.6736402 252.71441691 -174 256 C-177.28468311 259.24451578 -180.50734026 262.47922384 -183.5 266 C-186.97610577 270.0895362 -190.78249656 273.8096054 -194.59765625 277.578125 C-197.34325486 280.30308001 -199.99269952 283.05023473 -202.5 286 C-205.4926604 289.52077694 -208.7153265 292.7554753 -212 296 C-215.26382615 299.22398087 -218.46830141 302.43517847 -221.4375 305.9375 C-224.60010003 309.65957718 -228.02970978 313.06865804 -231.5 316.5 C-234.92845105 319.89005854 -238.32260742 323.25194008 -241.4375 326.9375 C-245.313999 331.51351762 -249.6252468 335.64986201 -253.88427734 339.86474609 C-257.45681919 343.41441758 -260.84596877 347.03148977 -264.09765625 350.87890625 C-267.32501185 354.47737461 -270.80624973 357.8252353 -274.24243164 361.22290039 C-277.10590456 364.06657686 -279.88884684 366.91883927 -282.5 370 C-286.1625616 374.32182269 -290.21073189 378.2364938 -294.2355957 382.21606445 C-297.74027738 385.69644673 -301.05560439 389.26186318 -304.25 393.03125 C-307.22780858 396.38128465 -310.45960152 399.47794227 -313.66796875 402.60546875 C-315.95848369 404.95737103 -317.99396894 407.40368854 -320 410 C-322.44610712 409.61549926 -323.72431766 409.27766696 -325.4921875 407.49707031 C-326.17667969 406.54719238 -326.17667969 406.54719238 -326.875 405.578125 C-327.64070313 404.53398438 -327.64070313 404.53398438 -328.421875 403.46875 C-329.20304687 402.37046875 -329.20304687 402.37046875 -330 401.25 C-331.0410537 399.81726274 -332.08270743 398.38496126 -333.125 396.953125 C-333.61484375 396.27443359 -334.1046875 395.59574219 -334.609375 394.89648438 C-336.3370549 392.54033665 -338.14908922 390.26024682 -340 388 C-338.52750965 382.94476242 -335.51637568 380.20493899 -331.8125 376.6875 C-330.61922825 375.52665411 -329.42780432 374.36390562 -328.23828125 373.19921875 C-327.3867749 372.36656494 -327.3867749 372.36656494 -326.51806641 371.51708984 C-324.75124342 369.75140344 -323.1088517 367.91025683 -321.5 366 C-317.8354347 361.67581294 -313.78479134 357.75917709 -309.7578125 353.77734375 C-306.89425883 350.93358423 -304.1112281 348.08124916 -301.5 345 C-297.8354347 340.67581294 -293.78479134 336.75917709 -289.7578125 332.77734375 C-286.89425883 329.93358423 -284.1112281 327.08124916 -281.5 324 C-278.36119859 320.29621434 -274.94937324 316.91070855 -271.5 313.5 C-268.07155172 310.10993882 -264.6773928 306.74806018 -261.5625 303.0625 C-257.68666792 298.48726965 -253.37624385 294.35158442 -249.11791992 290.13745117 C-245.52304465 286.56561075 -242.10882208 282.92566267 -238.8359375 279.0546875 C-235.83779707 275.69932183 -232.6021425 272.58256239 -229.40185547 269.42138672 C-226.65641833 266.69659843 -224.00715 263.94958823 -221.5 261 C-218.02389423 256.9104638 -214.21750344 253.1903946 -210.40234375 249.421875 C-207.65674514 246.69691999 -205.00730048 243.94976527 -202.5 241 C-199.0245645 236.91125235 -195.21899763 233.19183316 -191.40454102 229.42407227 C-188.04939106 226.0941767 -184.90274548 222.66068601 -181.83984375 219.05859375 C-179.04370984 215.9300108 -176.03673816 213.01602391 -173.05102539 210.07055664 C-169.77962934 206.82619226 -166.73028962 203.46373664 -163.7421875 199.9609375 C-161.02955756 196.90770829 -158.09399547 194.0859685 -155.1875 191.21875 C-153.20279658 189.20569368 -151.33903084 187.14553597 -149.5 185 C-146.24955349 181.20781241 -142.74550431 177.72864469 -139.19140625 174.22265625 C-136.57898932 171.5729856 -134.16697379 168.78827197 -131.74609375 165.96484375 C-129.2764064 163.18575486 -126.62096678 160.61139504 -123.97265625 158.00390625 C-121.42662171 155.41753849 -119.07978443 152.6846472 -116.71484375 149.93359375 C-114.52843176 147.46827727 -112.19363107 145.18055333 -109.8425293 142.8737793 C-108.06975976 141.07094291 -106.41311736 139.21418978 -104.765625 137.296875 C-101.0362778 133.0077315 -97.16226544 128.87196172 -93.25 124.75 C-84.45487029 115.4433013 -75.79229152 106.02858644 -67.24609375 96.4921875 C-65.68491284 94.75995546 -64.11384442 93.03660424 -62.53515625 91.3203125 C-57.57683491 85.92651456 -52.80180267 80.44086069 -48.2109375 74.73046875 C-46.76230455 72.94143266 -45.28892701 71.17208993 -43.7890625 69.42578125 C-33.17183464 56.96450855 -22.95403379 41.29676523 -17 26 C-38.16875853 32.19702385 -57.44216225 40.90789142 -77 51 C-78.56041016 51.8029248 -78.56041016 51.8029248 -80.15234375 52.62207031 C-86.52284293 55.93184612 -92.78633118 59.40503485 -99 63 C-99.97952637 63.56605957 -100.95905273 64.13211914 -101.96826172 64.71533203 C-117.98057067 74.0502101 -133.45744638 84.15688468 -148.875 94.4375 C-149.77214722 95.03546387 -150.66929443 95.63342773 -151.59362793 96.24951172 C-172.62435834 110.28863523 -193.85207733 124.6281323 -212.859375 141.3671875 C-213.4898877 141.92108154 -214.12040039 142.47497559 -214.77001953 143.0456543 C-215.98231635 144.11865983 -217.18682742 145.20054413 -218.38232422 146.29223633 C-222.56256749 150 -222.56256749 150 -227 150 C-228.59985352 148.44287109 -228.59985352 148.44287109 -230.12890625 146.2734375 C-230.68900391 145.48839844 -231.24910156 144.70335937 -231.82617188 143.89453125 C-232.39916016 143.06308594 -232.97214844 142.23164063 -233.5625 141.375 C-234.13935547 140.56675781 -234.71621094 139.75851563 -235.31054688 138.92578125 C-238.25358534 134.75053636 -240.88479504 130.65194543 -243 126 C-237.08328866 119.77812877 -230.7335429 114.31284353 -224 109 C-223.35240723 108.48663086 -222.70481445 107.97326172 -222.03759766 107.44433594 C-201.04591354 90.83542425 -179.0853406 75.8848694 -156.75366211 61.15673828 C-155.22508381 60.1484682 -153.69742325 59.13880709 -152.16992188 58.12890625 C-31.69367508 -21.39533238 -31.69367508 -21.39533238 0 0 Z " fill="#030303" transform="translate(346,27)"/>
<path d="M0 0 C0.78117187 0.01804687 1.56234375 0.03609375 2.3671875 0.0546875 C2.94726562 0.07789062 3.52734375 0.10109375 4.125 0.125 C9.73497424 11.34494848 2.20065844 31.05530655 -1.44921875 42.02734375 C-3.11875978 46.78345618 -4.96970068 51.45913367 -6.875 56.125 C-7.21547363 56.9691748 -7.55594727 57.81334961 -7.90673828 58.68310547 C-12.78382612 70.69597825 -18.29156557 82.23844031 -24.50537109 93.61376953 C-25.9803837 96.31822223 -27.4380252 99.031633 -28.89453125 101.74609375 C-33.90951492 111.06076398 -38.96417117 120.30635024 -44.6640625 129.22314453 C-46.16309175 131.57746668 -47.64320467 133.94338791 -49.125 136.30859375 C-55.35067133 146.21129156 -61.69942452 155.94439758 -68.61230469 165.37939453 C-69.98570229 167.27803971 -71.32725863 169.19651766 -72.6640625 171.12109375 C-79.5392496 181.01155294 -86.75780733 190.57325274 -94.22167969 200.02636719 C-95.76285169 201.98264517 -97.29379337 203.94634084 -98.8203125 205.9140625 C-103.72906491 212.22987558 -108.75446139 218.41800089 -113.95068359 224.49975586 C-116.75714389 227.78745376 -119.49845781 231.11569215 -122.1875 234.5 C-131.8946194 246.70834035 -131.8946194 246.70834035 -135.875 249.125 C-136.535 249.125 -137.195 249.125 -137.875 249.125 C-136.80380233 246.39831501 -135.88375955 245.13190459 -133.55078125 243.29296875 C-130.85422264 241.10816579 -128.89890983 238.90427764 -126.75 236.1875 C-123.39734038 232.00222624 -119.98663139 227.88651606 -116.5 223.8125 C-111.2926846 217.69306656 -106.31234205 211.41537667 -101.38769531 205.06738281 C-99.76460165 202.98324253 -98.12916104 200.90919084 -96.4921875 198.8359375 C-89.13595098 189.49232653 -82.11250769 179.98149473 -75.33398438 170.21191406 C-73.89039058 168.1470145 -72.42598264 166.09879367 -70.953125 164.0546875 C-57.81957834 145.78666257 -46.0958545 126.61537171 -34.875 107.125 C-34.1619873 105.89281738 -34.1619873 105.89281738 -33.43457031 104.63574219 C-15.14726714 72.86011323 0.28351344 38.95216132 3.125 2.125 C-15.36810839 5.04362449 -30.79984156 15.22063714 -44.875 27.125 C-46.70769982 28.60495152 -48.54105603 30.0840905 -50.375 31.5625 C-56.71556404 36.76318736 -62.79286575 42.2300399 -68.76953125 47.84375 C-69.73246094 48.7409375 -70.69539063 49.638125 -71.6875 50.5625 C-72.99654297 51.79806641 -72.99654297 51.79806641 -74.33203125 53.05859375 C-76.875 55.125 -76.875 55.125 -79.36328125 56.05859375 C-82.80938647 57.52171463 -84.8464969 59.98274183 -87.25 62.75 C-87.73404297 63.29269531 -88.21808594 63.83539063 -88.71679688 64.39453125 C-90.11232157 65.96333205 -91.49571455 67.54192066 -92.875 69.125 C-93.49632812 69.83398438 -94.11765625 70.54296875 -94.7578125 71.2734375 C-95.84335406 72.51630392 -96.92666076 73.76112556 -98.0078125 75.0078125 C-100.85636342 78.23775936 -103.77785102 81.4004224 -106.6940918 84.5690918 C-109.54823831 87.6718895 -112.37844907 90.7936646 -115.1875 93.9375 C-119.58667736 98.84033988 -124.08189635 103.64999635 -128.58349609 108.45849609 C-132.18330897 112.3057055 -135.7601964 116.17137758 -139.3125 120.0625 C-145.45952381 126.78552604 -151.69709688 133.42243642 -157.93554688 140.06054688 C-160.46261339 142.75048575 -162.98685173 145.4430677 -165.51074219 148.13598633 C-166.7507387 149.45896322 -167.99097202 150.7817182 -169.23144531 152.10424805 C-172.46002908 155.54657523 -175.68546294 158.99178196 -178.90625 162.44140625 C-179.57076172 163.15232422 -180.23527344 163.86324219 -180.91992188 164.59570312 C-182.17741832 165.94113639 -183.43400418 167.2874216 -184.68945312 168.63476562 C-187.61219086 171.75997234 -190.56887464 174.83655271 -193.60546875 177.8515625 C-195.90656491 180.13694167 -198.10377385 182.44938495 -200.1875 184.9375 C-202.95118029 188.14833755 -205.86119596 191.14767165 -208.875 194.125 C-211.78553801 197.00057659 -214.59924022 199.88374094 -217.25 203 C-220.28930745 206.55786227 -223.5486402 209.83941691 -226.875 213.125 C-230.15968311 216.36951578 -233.38234026 219.60422384 -236.375 223.125 C-239.85110577 227.2145362 -243.65749656 230.9346054 -247.47265625 234.703125 C-250.21825486 237.42808001 -252.86769952 240.17523473 -255.375 243.125 C-258.3676604 246.64577694 -261.5903265 249.8804753 -264.875 253.125 C-268.13882615 256.34898087 -271.34330141 259.56017847 -274.3125 263.0625 C-277.47510003 266.78457718 -280.90470978 270.19365804 -284.375 273.625 C-287.80345105 277.01505854 -291.19760742 280.37694008 -294.3125 284.0625 C-298.188999 288.63851762 -302.5002468 292.77486201 -306.75927734 296.98974609 C-310.33181919 300.53941758 -313.72096877 304.15648977 -316.97265625 308.00390625 C-320.20001185 311.60237461 -323.68124973 314.9502353 -327.11743164 318.34790039 C-329.98090456 321.19157686 -332.76384684 324.04383927 -335.375 327.125 C-339.0375616 331.44682269 -343.08573189 335.3614938 -347.1105957 339.34106445 C-350.61527738 342.82144673 -353.93060439 346.38686318 -357.125 350.15625 C-360.10280858 353.50628465 -363.33460152 356.60294227 -366.54296875 359.73046875 C-368.83348369 362.08237103 -370.86896894 364.52868854 -372.875 367.125 C-373.865 366.795 -374.855 366.465 -375.875 366.125 C-369.91073253 359.60406757 -363.94593641 353.12451586 -357.64453125 346.92578125 C-355.9258407 345.17673855 -354.33603409 343.36939502 -352.75 341.5 C-349.32219279 337.50352431 -345.61467178 333.82567116 -341.875 330.125 C-337.62152101 325.91574171 -333.51119338 321.68475268 -329.64453125 317.11328125 C-326.87569444 314.00215998 -323.88456889 311.11428921 -320.92114258 308.19067383 C-317.70120658 304.99728944 -314.70612956 301.68932014 -311.76953125 298.23828125 C-308.42605766 294.5087571 -304.81019054 291.04368979 -301.23046875 287.54296875 C-298.76775734 285.1626692 -298.76775734 285.1626692 -296.875 282.125 C-296.215 282.125 -295.555 282.125 -294.875 282.125 C-294.49347778 281.25343262 -294.49347778 281.25343262 -294.10424805 280.36425781 C-292.74226505 277.88320358 -291.2318556 276.26981897 -289.20703125 274.296875 C-288.47806641 273.57886719 -287.74910156 272.86085938 -286.99804688 272.12109375 C-286.23556641 271.37988281 -285.47308594 270.63867188 -284.6875 269.875 C-279.76514194 265.06790964 -275.01408644 260.22480174 -270.5300293 255.00488281 C-267.94788148 252.07192246 -265.16864483 249.35459747 -262.375 246.625 C-258.2962704 242.59709569 -254.38925254 238.52240225 -250.6796875 234.1484375 C-247.89577021 231.02707569 -244.89517656 228.12478177 -241.91918945 225.1887207 C-239.31362818 222.60461541 -236.81439418 219.98282054 -234.4375 217.1875 C-230.93789503 213.08073465 -227.11517991 209.33775194 -223.27978516 205.54931641 C-219.92455443 202.21933671 -216.77782125 198.78577511 -213.71484375 195.18359375 C-210.91870984 192.0550108 -207.91173816 189.14102391 -204.92602539 186.19555664 C-201.65462934 182.95119226 -198.60528962 179.58873664 -195.6171875 176.0859375 C-192.90333878 173.03133647 -189.96636248 170.20838457 -187.05859375 167.33984375 C-185.09525329 165.34840539 -183.25420331 163.31197422 -181.4375 161.1875 C-178.00063389 157.17649384 -174.28299257 153.49594014 -170.5 149.8125 C-167.79208221 147.04010798 -165.26474202 144.15790255 -162.72705078 141.23095703 C-159.67490527 137.7603787 -156.49233203 134.41574875 -153.3125 131.0625 C-151.89948973 129.56664222 -150.48673415 128.07054383 -149.07421875 126.57421875 C-148.01920166 125.45732666 -148.01920166 125.45732666 -146.94287109 124.31787109 C-137.51534452 114.32046333 -128.17754219 104.23866304 -118.875 94.125 C-118.39933594 93.60808594 -117.92367188 93.09117187 -117.43359375 92.55859375 C-111.94146769 86.58759021 -106.47299518 80.59642599 -101.05859375 74.5546875 C-99.57853122 72.90782007 -98.09130312 71.26736946 -96.59765625 69.6328125 C-92.00584664 64.59359581 -87.73455943 59.45982941 -83.69921875 53.9609375 C-82.79623047 53.05214844 -82.79623047 53.05214844 -81.875 52.125 C-80.555 52.125 -79.235 52.125 -77.875 52.125 C-76.04493304 50.88903468 -76.04493304 50.88903468 -74.36328125 49.1171875 C-73.69699707 48.4672583 -73.03071289 47.8173291 -72.34423828 47.14770508 C-71.63251465 46.4389624 -70.92079102 45.73021973 -70.1875 45 C-22.88408124 -0.69345701 -22.88408124 -0.69345701 0 0 Z " fill="#131313" transform="translate(398.875,69.875)"/>
<path d="M0 0 C-5.12874508 19.14731498 -18.81555195 36.78104939 -31.68603516 51.47558594 C-33.76902994 53.89220047 -35.75341686 56.38689809 -37.75 58.875 C-40.77229012 62.59101863 -43.90515896 66.02238117 -47.34375 69.3515625 C-49.02612806 71.02600482 -50.57669165 72.76373001 -52.125 74.5625 C-56.00237271 79.0627086 -60.05476304 83.39275594 -64.11767578 87.72485352 C-66.95506698 90.75997082 -69.7394957 93.82846709 -72.46484375 96.96484375 C-75.90617335 100.91966271 -79.46327527 104.75152786 -83.0625 108.5625 C-84.38557203 109.96860382 -85.70848502 111.37485732 -87.03125 112.78125 C-87.69382813 113.48507813 -88.35640625 114.18890625 -89.0390625 114.9140625 C-92.05519226 118.12245551 -95.05938238 121.34193135 -98.0625 124.5625 C-99.21744206 125.80078671 -100.37238998 127.03906796 -101.52734375 128.27734375 C-102.0982373 128.8894873 -102.66913086 129.50163086 -103.25732422 130.13232422 C-105.02605322 132.02792198 -106.79605249 133.92232588 -108.56640625 135.81640625 C-109.75263696 137.08590685 -110.93883506 138.35543794 -112.125 139.625 C-112.70411133 140.24463623 -113.28322266 140.86427246 -113.87988281 141.50268555 C-116.67494753 144.49655417 -119.46190338 147.49721968 -122.23046875 150.515625 C-127.37238302 156.12125347 -132.56893774 161.61552391 -137.98828125 166.95703125 C-140.51622635 169.5242454 -142.84374603 172.23437037 -145.1875 174.96875 C-147.2109288 177.23638572 -149.33653347 179.3657695 -151.5 181.5 C-154.20383393 184.16754086 -156.79255535 186.85459492 -159.25 189.75 C-162.48338946 193.52732413 -165.9670049 197.00682451 -169.5 200.5 C-173.57633513 204.53049499 -177.48553204 208.60234375 -181.1953125 212.9765625 C-183.97922979 216.09792431 -186.97982344 219.00021823 -189.95581055 221.9362793 C-192.56137182 224.52038459 -195.06060582 227.14217946 -197.4375 229.9375 C-200.45352849 233.47679126 -203.69448224 236.73494145 -207 240 C-210.26382932 243.22397793 -213.46830164 246.43517874 -216.4375 249.9375 C-220.21436492 254.39081834 -224.38848983 258.44001403 -228.55834961 262.52124023 C-230.99353429 264.9189217 -233.09752852 267.14629277 -235 270 C-235.66 270 -236.32 270 -237 270 C-237.2678833 270.59458008 -237.5357666 271.18916016 -237.81176758 271.80175781 C-239.01210673 274.02239757 -240.20702998 275.4243607 -242.01171875 277.171875 C-242.60098145 277.74953613 -243.19024414 278.32719727 -243.79736328 278.92236328 C-244.4211084 279.5254834 -245.04485352 280.12860352 -245.6875 280.75 C-250.03281959 285.01645319 -254.23033367 289.29272967 -258.1640625 293.9453125 C-261.12035798 297.25384744 -264.29879614 300.34159372 -267.47509766 303.43798828 C-270.23778606 306.15271015 -272.84665815 308.93960084 -275.375 311.875 C-279.67443452 316.8453353 -284.35027686 321.40103784 -289.0390625 326 C-293.00056825 329.91561959 -296.74406719 333.93621009 -300.37890625 338.15625 C-302.64246261 340.73070447 -305.04702227 343.1047394 -307.5 345.5 C-310.7385544 348.68486447 -313.8671662 351.91374298 -316.8125 355.375 C-319.61872519 358.66926436 -322.59046855 361.33890228 -326 364 C-324.52750965 358.94476242 -321.51637568 356.20493899 -317.8125 352.6875 C-316.61922825 351.52665411 -315.42780432 350.36390562 -314.23828125 349.19921875 C-313.3867749 348.36656494 -313.3867749 348.36656494 -312.51806641 347.51708984 C-310.75124342 345.75140344 -309.1088517 343.91025683 -307.5 342 C-303.8354347 337.67581294 -299.78479134 333.75917709 -295.7578125 329.77734375 C-292.89425883 326.93358423 -290.1112281 324.08124916 -287.5 321 C-283.8354347 316.67581294 -279.78479134 312.75917709 -275.7578125 308.77734375 C-272.89425883 305.93358423 -270.1112281 303.08124916 -267.5 300 C-264.36119859 296.29621434 -260.94937324 292.91070855 -257.5 289.5 C-254.07155172 286.10993882 -250.6773928 282.74806018 -247.5625 279.0625 C-243.68666792 274.48726965 -239.37624385 270.35158442 -235.11791992 266.13745117 C-231.52304465 262.56561075 -228.10882208 258.92566267 -224.8359375 255.0546875 C-221.83779707 251.69932183 -218.6021425 248.58256239 -215.40185547 245.42138672 C-212.65641833 242.69659843 -210.00715 239.94958823 -207.5 237 C-204.02389423 232.9104638 -200.21750344 229.1903946 -196.40234375 225.421875 C-193.65674514 222.69691999 -191.00730048 219.94976527 -188.5 217 C-185.0245645 212.91125235 -181.21899763 209.19183316 -177.40454102 205.42407227 C-174.04939106 202.0941767 -170.90274548 198.66068601 -167.83984375 195.05859375 C-165.04370984 191.9300108 -162.03673816 189.01602391 -159.05102539 186.07055664 C-155.77962934 182.82619226 -152.73028962 179.46373664 -149.7421875 175.9609375 C-147.02955756 172.90770829 -144.09399547 170.0859685 -141.1875 167.21875 C-139.20279658 165.20569368 -137.33903084 163.14553597 -135.5 161 C-132.24955349 157.20781241 -128.74550431 153.72864469 -125.19140625 150.22265625 C-122.57898932 147.5729856 -120.16697379 144.78827197 -117.74609375 141.96484375 C-115.2764064 139.18575486 -112.62096678 136.61139504 -109.97265625 134.00390625 C-107.42662171 131.41753849 -105.07978443 128.6846472 -102.71484375 125.93359375 C-100.52843176 123.46827727 -98.19363107 121.18055333 -95.8425293 118.8737793 C-94.06975976 117.07094291 -92.41311736 115.21418978 -90.765625 113.296875 C-87.0362778 109.0077315 -83.16226544 104.87196172 -79.25 100.75 C-70.45487029 91.4433013 -61.79229152 82.02858644 -53.24609375 72.4921875 C-51.68491284 70.75995546 -50.11384442 69.03660424 -48.53515625 67.3203125 C-43.57683491 61.92651456 -38.80180267 56.44086069 -34.2109375 50.73046875 C-32.76230455 48.94143266 -31.28892701 47.17208993 -29.7890625 45.42578125 C-19.17183464 32.96450855 -8.95403379 17.29676523 -3 2 C-24.16875853 8.19702385 -43.44216225 16.90789142 -63 27 C-64.04027344 27.5352832 -65.08054687 28.07056641 -66.15234375 28.62207031 C-72.52284293 31.93184612 -78.78633118 35.40503485 -85 39 C-85.97952637 39.56605957 -86.95905273 40.13211914 -87.96826172 40.71533203 C-103.98057067 50.0502101 -119.45744638 60.15688468 -134.875 70.4375 C-135.77214722 71.03546387 -136.66929443 71.63342773 -137.59362793 72.24951172 C-160.73661551 87.69867847 -183.61598811 103.72913443 -204.47021484 122.2043457 C-206.9740338 124.39747983 -208.80690251 125.93563417 -212 127 C-207.7235284 116.83200636 -194.61993839 109.59112148 -186 103 C-185.24895996 102.42443359 -184.49791992 101.84886719 -183.72412109 101.25585938 C-171.74353986 92.10040401 -159.52369153 83.39398867 -147 75 C-145.26949727 73.83338374 -143.53902926 72.66671596 -141.80859375 71.5 C-125.49178358 60.53086754 -108.92270818 50.00837667 -92 40 C-91.30100586 39.58476074 -90.60201172 39.16952148 -89.88183594 38.74169922 C-76.20826556 30.6194165 -62.44447654 23.18788803 -48.0546875 16.40234375 C-43.2088371 14.11218158 -38.42463865 11.72442473 -33.66796875 9.25390625 C-27.27124554 6.24754 -20.61097823 4.19875004 -13.8125 2.3125 C-12.64170898 1.97508789 -12.64170898 1.97508789 -11.44726562 1.63085938 C-7.54139527 0.54092609 -4.09801044 -0.30386049 0 0 Z " fill="#131313" transform="translate(332,51)"/>
<path d="M0 0 C-3.11868545 1.00243461 -4.88258073 0.88395631 -8 0 C-30.66551533 -2.63991027 -54.50639809 10.704228 -74.25 20.1875 C-74.87573914 20.48727753 -75.50147827 20.78705505 -76.1461792 21.09591675 C-82.28822509 24.04934023 -88.30168318 27.02591738 -94.01269531 30.75170898 C-97.30846782 32.8218914 -100.75576229 34.61240901 -104.1796875 36.45996094 C-108.6781544 38.91636063 -113.09060957 41.51290671 -117.5 44.125 C-118.4477832 44.68630615 -119.39556641 45.2476123 -120.37207031 45.82592773 C-135.89889274 55.06555354 -151.04015779 64.8719717 -166 75 C-166.67627441 75.45729492 -167.35254883 75.91458984 -168.04931641 76.38574219 C-191.55816639 92.31830751 -215.84687292 108.84687292 -236 129 C-236.99 128.67 -237.98 128.34 -239 128 C-233.08328866 121.77812877 -226.7335429 116.31284353 -220 111 C-219.35240723 110.48663086 -218.70481445 109.97326172 -218.03759766 109.44433594 C-197.04591354 92.83542425 -175.0853406 77.8848694 -152.75366211 63.15673828 C-151.22508381 62.1484682 -149.69742325 61.13880709 -148.16992188 60.12890625 C-33.85300953 -15.32966469 -33.85300953 -15.32966469 0 0 Z " fill="#131313" transform="translate(342,25)"/>
<path d="M0 0 C5.51695274 3.88694397 7.72647052 7.70645704 10 14 C10.34933594 14.90363281 10.69867188 15.80726562 11.05859375 16.73828125 C19.79105132 46.99389152 3.46372251 82.65050346 -8.94238281 109.69238281 C-9.64171059 111.21824758 -10.33645603 112.7462217 -11.02636719 114.27636719 C-17.21364891 127.98475111 -24.4112926 141.02188193 -32 154 C-32.52513184 154.90427734 -33.05026367 155.80855469 -33.59130859 156.74023438 C-35.06798852 159.27275211 -36.5610483 161.79460603 -38.0625 164.3125 C-38.72354736 165.4418396 -38.72354736 165.4418396 -39.39794922 166.59399414 C-39.81447754 167.28098389 -40.23100586 167.96797363 -40.66015625 168.67578125 C-41.01730713 169.27302002 -41.37445801 169.87025879 -41.74243164 170.4855957 C-43.27375629 172.32966613 -44.81527759 173.06632106 -47 174 C-44.14216293 168.60933478 -41.20476876 163.28709624 -38.01953125 158.08178711 C-27.17306931 140.34615768 -17.65188344 121.89352605 -9 103 C-8.66242676 102.27345215 -8.32485352 101.5469043 -7.97705078 100.79833984 C-3.78405863 91.7538475 -0.35916223 82.6813774 2.39404297 73.09912109 C3.02866007 70.90071744 3.68777927 68.71047377 4.34765625 66.51953125 C9.61460294 48.73313589 13.69959603 27.95786708 6.1875 10.171875 C4.47645431 7.0424625 2.41527445 4.61654732 0 2 C0 1.34 0 0.68 0 0 Z " fill="#131313" transform="translate(415,50)"/>
<path d="M0 0 C0.495 1.485 0.495 1.485 1 3 C-0.5546875 5.3125 -0.5546875 5.3125 -2.875 8 C-3.71289062 8.98484375 -4.55078125 9.9696875 -5.4140625 10.984375 C-6.26742187 11.97953125 -7.12078125 12.9746875 -8 14 C-9.42097307 15.74650508 -10.83771767 17.49645985 -12.25 19.25 C-16.94466127 24.98973369 -21.80329232 30.58003268 -26.671875 36.171875 C-29.81941579 39.78734287 -32.9453653 43.42080557 -36.0625 47.0625 C-36.55339111 47.63589111 -37.04428223 48.20928223 -37.55004883 48.80004883 C-38.53885203 49.95530518 -39.52754049 51.11065976 -40.51611328 52.26611328 C-43.00895524 55.17894046 -45.50462766 58.08934061 -48 61 C-49.0000134 62.16665518 -50.00001341 63.33332184 -51 64.5 C-57 71.5 -57 71.5 -58.50073242 73.25073242 C-59.49845195 74.41481977 -60.49601114 75.57904456 -61.4934082 76.7434082 C-64.02698743 79.70069887 -66.56350137 82.65538369 -69.10546875 85.60546875 C-70.13282782 86.79946598 -71.16017173 87.99347627 -72.1875 89.1875 C-72.68443359 89.76330811 -73.18136719 90.33911621 -73.69335938 90.93237305 C-76.05329204 93.67872515 -78.37297003 96.44397846 -80.61328125 99.2890625 C-81.40089844 100.28679687 -82.18851563 101.28453125 -83 102.3125 C-84.0209375 103.63701172 -84.0209375 103.63701172 -85.0625 104.98828125 C-87.09323714 107.09680873 -88.13736202 107.6613397 -91 108 C-85.70964353 100.59350094 -79.73095634 93.83269236 -73.7421875 86.9921875 C-70.96429205 83.81567028 -68.20058883 80.62689634 -65.4375 77.4375 C-64.90213623 76.81963623 -64.36677246 76.20177246 -63.81518555 75.56518555 C-52.95227619 63.05911735 -52.95227619 63.05911735 -42.375 50.3125 C-39.3600913 46.59556382 -36.2391678 43.0232179 -33 39.5 C-28.94461057 35.08843615 -25.1152626 30.54812118 -21.3515625 25.88671875 C-18.75552413 22.6998876 -16.10262012 19.56649756 -13.4375 16.4375 C-8.84918438 11.04358389 -4.38262065 5.56303996 0 0 Z " fill="#131313" transform="translate(310,304)"/>
<path d="M0 0 C6.21034807 2.33065694 10.33503006 9.13376121 13 15 C14.176532 19.59844927 14.1769964 24.27773596 14 29 C14.79265259 28.56917114 14.79265259 28.56917114 15.60131836 28.12963867 C18.04275799 26.80813525 20.49002986 25.49779861 22.9375 24.1875 C23.76830078 23.73568359 24.59910156 23.28386719 25.45507812 22.81835938 C32.58782394 19.01607853 39.88554521 15.82800559 48 15 C48.71542969 14.92394531 49.43085938 14.84789062 50.16796875 14.76953125 C57.40373237 14.3438981 63.78459258 16.26288795 70 20 C71.34375 22.171875 71.34375 22.171875 72 24 C70.515 23.505 70.515 23.505 69 23 C69 22.34 69 21.68 69 21 C68.278125 20.87625 67.55625 20.7525 66.8125 20.625 C64 20 64 20 61.71875 18.9921875 C51.22705567 15.16332204 40.61785194 18.77111304 30.94287109 23.08837891 C25.82981665 25.48749241 20.91123053 28.2140973 16 31 C14.67198532 31.67719954 13.34090759 32.34870203 12 33 C10.21981978 31.21981978 10.9650338 28.84242776 10.96313477 26.47460938 C10.85221366 16.57833379 8.77790834 10.54024977 2 3 C1.34 2.67 0.68 2.34 0 2 C0 1.34 0 0.68 0 0 Z " fill="#131313" transform="translate(343,26)"/>
<path d="M0 0 C0.66 0.66 1.32 1.32 2 2 C-3.2565235 7.35346758 -8.53496243 12.59205383 -14.24609375 17.4609375 C-15.87396202 18.88940097 -17.3775441 20.37455769 -18.875 21.9375 C-21 24 -21 24 -23 24 C-19.72413924 16.36207202 -11.91183811 10.81317941 -5.73046875 5.5078125 C-3.72531622 3.76065928 -1.84156687 1.91829882 0 0 Z " fill="#131313" transform="translate(335,283)"/>
</svg>
